<svg width="190" height="134" viewBox="0 0 190 134" fill="none" xmlns="http://www.w3.org/2000/svg">
<path d="M20.5633 109.665L23.5344 109.928C23.7368 120.512 32.4056 129 43.0332 129C53.7261 129 62.4361 120.407 62.5347 109.732H65.0733H103.46C110.043 109.732 115.771 106.013 118.622 100.553C118.952 105.692 123.235 109.732 128.436 109.732H129.761H132.299C132.398 120.407 141.108 129 151.801 129C162.555 129 171.303 120.308 171.303 109.549C171.303 109.417 171.302 109.285 171.299 109.154L175.853 106.025C181.364 102.24 185 95.8848 185 88.6761V76.6338C185 71.1953 180.58 66.8169 175.166 66.8169H174.632C177.012 65.0282 178.555 62.185 178.555 58.9718V47.7324C178.555 36.0865 169.085 26.6761 157.441 26.6761H128.436C125.212 26.6761 122.341 28.2285 120.545 30.6328V22.0423C120.545 12.6133 112.879 5 103.46 5H22.0853C12.6662 5 5 12.6133 5 22.0423V92.6901C5 101.606 11.8526 108.895 20.5633 109.665ZM124.137 67.8028C122.715 68.494 121.483 69.5176 120.545 70.7737V64.8319C121.483 66.088 122.715 67.1116 124.137 67.8028Z" fill="#DAF3F5" stroke="#32BFCE" stroke-width="10"/>
</svg>
