<svg width="190" height="166" viewBox="0 0 190 166" fill="none" xmlns="http://www.w3.org/2000/svg">
<path d="M158.362 27.5881C149.134 19.6628 136.144 17.3411 124.731 20.3656C118.818 10.9981 107.515 5 95 5C82.4853 5 71.182 10.9981 65.269 20.3656C53.8565 17.3411 40.8663 19.6628 31.6383 27.5881C22.6013 35.3493 19.4473 46.6012 22.5731 56.8069C12.3552 61.7793 5 71.408 5 83C5 94.592 12.3552 104.221 22.5731 109.193C19.4473 119.399 22.6013 130.651 31.6383 138.412C40.8663 146.337 53.8565 148.659 65.269 145.634C71.182 155.002 82.4853 161 95 161C107.515 161 118.818 155.002 124.731 145.634C136.144 148.659 149.134 146.337 158.362 138.412C167.399 130.651 170.553 119.399 167.427 109.193C177.645 104.221 185 94.592 185 83C185 71.408 177.645 61.7793 167.427 56.8069C170.553 46.6013 167.399 35.3493 158.362 27.5881Z" fill="#FAE7E3" stroke="#FF5B35" stroke-width="10"/>
</svg>
