<svg width="30" height="30" viewBox="0 0 30 30" fill="none" xmlns="http://www.w3.org/2000/svg">
<rect width="30" height="30" rx="8" fill="#FCFCFA"/>
<path d="M23 9.65285C23 8.24352 21.7565 7 20.3472 7H9.65285C8.24352 7 7 8.24352 7 9.65285V20.3471C7 21.7565 8.24352 23 9.65285 23H15.0414V16.9482H13.0518V14.2953H15.0414V13.2176C15.0414 11.3938 16.3679 9.81865 18.0259 9.81865H20.1814V12.4715H18.0259C17.7772 12.4715 17.5285 12.7202 17.5285 13.2176V14.2953H20.1814V16.9482H17.5285V23H20.3472C21.7565 23 23 21.7565 23 20.3471V9.65285Z" fill="#051439"/>
</svg>
