<svg width="160" height="160" viewBox="0 0 160 160" fill="none" xmlns="http://www.w3.org/2000/svg">
<path d="M64.8319 14.9535L63.4341 18.1753L60.6127 16.084C55.3206 12.1614 48.2049 11.7544 42.5 15.0481C36.7951 18.3418 33.5897 24.7077 34.3408 31.2522L34.7412 34.7412L31.2522 34.3408C24.7077 33.5897 18.3418 36.7951 15.0481 42.5C11.7544 48.2049 12.1614 55.3206 16.084 60.6127L18.1753 63.4341L14.9535 64.8319C8.91032 67.4537 5 73.4126 5 80C5 86.5874 8.91032 92.5463 14.9535 95.1681L18.1753 96.5659L16.084 99.3873C12.1614 104.679 11.7544 111.795 15.0481 117.5C18.3418 123.205 24.7077 126.41 31.2522 125.659L34.7412 125.259L34.3408 128.748C33.5897 135.292 36.7951 141.658 42.5 144.952C48.2049 148.246 55.3206 147.839 60.6127 143.916L63.4341 141.825L64.8319 145.046C67.4537 151.09 73.4126 155 80 155C86.5874 155 92.5463 151.09 95.1681 145.046L96.5659 141.825L99.3873 143.916C104.679 147.839 111.795 148.246 117.5 144.952L115 140.622L117.5 144.952C123.205 141.658 126.41 135.292 125.659 128.748L125.259 125.259L128.748 125.659C135.292 126.41 141.658 123.205 144.952 117.5C148.246 111.795 147.839 104.679 143.916 99.3873L139.899 102.365L143.916 99.3872L141.825 96.5659L145.046 95.1681C151.09 92.5463 155 86.5874 155 80C155 73.4126 151.09 67.4537 145.046 64.8319L141.825 63.4341L143.916 60.6127L139.899 57.6353L143.916 60.6127C147.839 55.3206 148.246 48.2049 144.952 42.5C141.658 36.7951 135.292 33.5897 128.748 34.3408L125.259 34.7412L125.659 31.2522C126.41 24.7077 123.205 18.3418 117.5 15.0481C111.795 11.7544 104.679 12.1614 99.3873 16.084L96.5659 18.1753L95.1681 14.9535C92.5463 8.91033 86.5874 5 80 5C73.4126 5 67.4537 8.91032 64.8319 14.9535Z" fill="#F3E5F4" stroke="#DCABDF" stroke-width="10"/>
</svg>
