<svg width="148" height="332" viewBox="0 0 148 332" fill="none" xmlns="http://www.w3.org/2000/svg">
<path d="M37.717 131.627L30.5022 134.757C18.0545 140.157 10 152.431 10 166C10 179.569 18.0545 191.843 30.5022 197.243L34.3083 188.47L30.5022 197.243L37.717 200.373L33.0339 206.691C24.954 217.592 24.1157 232.249 30.9 244C37.6844 255.751 50.7968 262.353 64.2771 260.806L72.0903 259.91L71.1937 267.723C69.6467 281.203 76.2492 294.316 88 301.1C99.7509 307.884 114.408 307.046 125.309 298.966L131.627 294.283L134.757 301.498C140.157 313.946 152.431 322 166 322C179.569 322 191.843 313.946 197.243 301.498L200.373 294.283L206.691 298.966C217.592 307.046 232.249 307.884 244 301.1C255.751 294.316 262.353 281.203 260.806 267.723L259.91 259.91L267.723 260.806C281.203 262.353 294.316 255.751 301.1 244C307.884 232.249 307.046 217.592 298.966 206.691L290.932 212.646L298.966 206.691L294.283 200.373L301.498 197.243C313.946 191.843 322 179.569 322 166C322 152.431 313.946 140.157 301.498 134.757L294.283 131.627L298.966 125.309C307.046 114.408 307.884 99.7509 301.1 88C294.316 76.2492 281.203 69.6467 267.723 71.1937L259.91 72.0903L260.806 64.2771C262.353 50.7968 255.751 37.6844 244 30.9C232.249 24.1157 217.592 24.954 206.691 33.0338L200.373 37.717L197.243 30.5022C191.843 18.0545 179.569 10 166 10C152.431 10 140.157 18.0545 134.757 30.5022L131.627 37.717L125.309 33.0338C114.408 24.954 99.7509 24.1157 88 30.9C76.2492 37.6844 69.6467 50.7968 71.1937 64.2771L72.0903 72.0903L64.2771 71.1937C50.7968 69.6467 37.6844 76.2492 30.9 88C24.1157 99.7508 24.954 114.408 33.0338 125.309L37.717 131.627Z" fill="#F5D961" stroke="#FCFCFA" stroke-width="20"/>
</svg>
