<svg width="130" height="130" viewBox="0 0 130 130" fill="none" xmlns="http://www.w3.org/2000/svg">
<path d="M62.7204 10.8614C56.0233 14.6677 50.6298 20.333 47.0615 27.1361C46.5412 27.0844 45.8199 27.0265 45.1081 27.0475L44.9349 27.0526L44.7623 27.0698L42.6369 27.2819C41.2962 27.3194 40.0409 27.4947 38.8768 27.7179C38.6394 27.7137 38.4068 27.7214 38.1814 27.7387L37.0555 27.8249L36.4837 28.155C32.8712 28.9425 29.4157 30.2233 26.125 31.9924L26.0583 32.0283L25.9926 32.0662L25.4592 32.3742C24.0089 33.2115 22.6052 34.145 21.2477 35.1958L20.97 35.3562L20.6881 35.5189L20.4294 35.717C18.8229 36.947 17.3276 38.3509 15.9824 39.8983C-1.04101 58.9517 5.02574 85.6415 21.7088 101.102L21.7654 101.155L21.8235 101.205C30.4986 108.758 40.7066 114.267 51.6619 117.325L51.7131 117.339L51.7647 117.352C66.7731 121.194 82.0647 123.413 97.4622 123.976L97.4662 123.976L99.1739 124.037L102.236 124.146L103.725 121.443L104.519 120.003L104.539 119.966L104.558 119.929C111.816 106.225 117.617 91.8309 121.889 76.9228L121.901 76.884L121.911 76.8451C124.909 65.7171 125.348 53.979 123.248 42.621L123.234 42.5449L123.218 42.4693C118.39 20.2078 98.7001 1.35342 74.0205 6.51726C69.9716 7.32965 66.1751 8.86882 62.7204 10.8614Z" fill="#DAF3F5" stroke="#32BFCE" stroke-width="10"/>
</svg>
