<svg width="30" height="30" viewBox="0 0 30 30" fill="none" xmlns="http://www.w3.org/2000/svg">
<rect width="30" height="30" rx="8" fill="#FCFCFA"/>
<path d="M20.7231 7H9.27692C7.98461 7 7 7.98462 7 9.27692V20.7231C7 22.0154 7.98461 23 9.27692 23H20.7231C22.0154 23 23 22.0154 23 20.7231V9.27692C23 7.98462 22.0154 7 20.7231 7ZM15 19.8C17.6462 19.8 19.8 17.7077 19.8 15.1846C19.8 14.7538 19.7385 14.2615 19.6154 13.8923H20.9692V20.4154C20.9692 20.7231 20.7231 21.0308 20.3538 21.0308H9.64616C9.33846 21.0308 9.03077 20.7846 9.03077 20.4154V13.8308H10.4462C10.3231 14.2615 10.2615 14.6923 10.2615 15.1231C10.2 17.7077 12.3538 19.8 15 19.8ZM15 17.9538C13.2769 17.9538 11.9231 16.6 11.9231 14.9385C11.9231 13.2769 13.2769 11.9231 15 11.9231C16.7231 11.9231 18.0769 13.2769 18.0769 14.9385C18.0769 16.6615 16.7231 17.9538 15 17.9538ZM20.9077 11.3692C20.9077 11.7385 20.6 12.0462 20.2308 12.0462H18.5077C18.1385 12.0462 17.8308 11.7385 17.8308 11.3692V9.70769C17.8308 9.33846 18.1385 9.03077 18.5077 9.03077H20.2308C20.6 9.03077 20.9077 9.33846 20.9077 9.70769V11.3692Z" fill="#051439"/>
</svg>
