<svg width="163" height="107" viewBox="0 0 163 107" fill="none" xmlns="http://www.w3.org/2000/svg">
<path d="M74.0381 100.717L74.3527 100.856L74.6833 100.95L75.8657 101.287C79.6858 102.376 83.6825 102.212 87.4119 100.83L87.5349 100.784L87.6554 100.732L146.386 75.3807C148.611 74.4202 150.596 72.9751 152.261 71.1829L148.599 67.7795L152.261 71.1829C156.194 66.9501 158 61.2677 158 55.8296C158 50.3914 156.194 44.709 152.261 40.4763L148.622 43.858L152.261 40.4762L152.052 40.2513C150.578 38.6645 148.856 37.3451 146.937 36.3871L88.0892 7.00042C84.0546 4.59967 79.2508 4.3279 74.9809 6.35729L73.9082 6.86713L73.8454 6.89698L73.7834 6.92857L15.9629 36.4078C14.0905 37.3624 12.408 38.6614 10.9628 40.2167L14.6257 43.6201L10.9628 40.2167L10.7497 40.4461C6.80948 44.6868 5 50.3803 5 55.8296C5 61.2789 6.80948 66.9723 10.7497 71.213C12.3893 72.9777 14.3382 74.4066 16.5213 75.3688L74.0381 100.717Z" fill="#DAF3F5" stroke="#32BFCE" stroke-width="10"/>
</svg>
