<svg width="156" height="305" viewBox="0 0 156 305" fill="none" xmlns="http://www.w3.org/2000/svg">
<path d="M98.0691 265.264L98.0677 265.256L85.9942 196.727C85.7189 194.917 86.3258 193.145 87.4875 191.97L138.26 142.682C138.265 142.677 138.271 142.672 138.276 142.666C145.229 135.964 147.719 125.853 144.798 116.682L144.77 116.595L144.74 116.508C141.683 107.484 133.893 100.767 124.358 99.3648C124.353 99.3641 124.349 99.3635 124.345 99.3628L56.8639 89.323C56.8543 89.3215 56.8446 89.3199 56.8349 89.3184C55.2762 89.0635 53.8257 88.027 53.0507 86.4026L53.0385 86.3771L53.0262 86.3517L22.8518 24.0111L22.8202 23.9459L22.7878 23.8812C18.9365 16.2099 11.5006 10.9666 2.94212 10.0561L2.41469 10H1.88429H-3.84055H-5.86549L-7.73093 10.7878L-9.86012 11.687L-11.1569 12.175L-11.9976 12.4915L-12.7685 12.9526C-14.1443 13.7757 -15.4422 14.7788 -16.6191 15.9758L-17.2836 16.5059L-17.6976 16.8362L-18.0745 17.2084C-20.0078 19.1177 -21.5357 21.2974 -22.6863 23.5668L-22.7436 23.6797L-22.798 23.7941L-52.5521 86.3589C-53.3981 88.067 -54.9551 89.0869 -56.5661 89.2573L-56.7763 89.2796L-56.9855 89.3107L-124.569 99.3661L-124.63 99.3752L-124.69 99.385C-134.093 100.903 -141.705 107.607 -144.67 116.546C-147.739 125.651 -145.408 135.772 -138.581 142.565L-138.578 142.569L-89.5097 191.346C-88.292 192.589 -87.6705 194.429 -87.9517 196.301L-100.037 264.822L-100.052 264.906L-100.065 264.989C-102.196 278.396 -93.5448 291.472 -79.9916 294.102L-79.8517 294.129L-79.711 294.152C-74.2611 295.049 -68.716 294.146 -63.8526 291.641L-63.7753 291.601L-63.6987 291.56L-3.45862 259.19L-3.37643 259.146L-3.34114 259.126H-1.01859C-0.212418 259.165 0.527115 259.378 1.17084 259.73L1.20883 259.75L1.24699 259.771L61.4299 291.964C69.8806 296.582 80.2134 295.9 87.9891 290.136C95.872 284.49 99.7364 274.771 98.0691 265.264Z" fill="#D4EF68" stroke="#FCFCFA" stroke-width="20"/>
</svg>
