<svg width="190" height="182" viewBox="0 0 190 182" fill="none" xmlns="http://www.w3.org/2000/svg">
<path d="M155.059 160.109L155.058 160.105L147.51 118.201C147.286 116.788 147.759 115.361 148.761 114.376L180.506 84.234C180.509 84.2309 180.512 84.2279 180.515 84.2248C184.535 80.4344 186.009 74.6669 184.298 69.4108L184.283 69.3665L184.268 69.3225C182.478 64.1554 177.955 60.3969 172.525 59.6163C172.523 59.616 172.521 59.6156 172.519 59.6153L130.329 53.4757C130.324 53.4749 130.319 53.4741 130.313 53.4732C128.883 53.248 127.645 52.3371 127.01 51.0336L127.003 51.0207L126.997 51.0079L108.138 12.8978L108.122 12.865L108.105 12.8323C105.861 8.46012 101.567 5.53373 96.6952 5.02685L96.4371 5H96.1777H92.5997H91.6076L90.6908 5.37873L89.3361 5.93831L88.5011 6.24567L88.0855 6.39869L87.7032 6.6224C86.9134 7.08454 86.1685 7.65065 85.4939 8.33076L85.0195 8.70093L84.8113 8.86338L84.6214 9.04686C83.5124 10.1181 82.6273 11.3497 81.9564 12.6439L81.9269 12.7009L81.8988 12.7586L63.299 51.013C62.611 52.3782 61.2835 53.2896 59.7891 53.4443L59.6862 53.4549L59.5838 53.4698L17.3443 59.6169L17.3145 59.6212L17.2846 59.6259C11.9313 60.4711 7.51216 64.2233 5.77773 69.3415C3.97882 74.5573 5.35863 80.3327 9.30777 84.1763L9.3095 84.178L39.9824 114.002C41.0123 115.026 41.4935 116.49 41.2667 117.939L33.7111 159.839L33.7034 159.882L33.6964 159.925C32.4398 167.657 37.5547 175.012 45.2634 176.475L45.332 176.488L45.4009 176.499C48.5138 177 51.6862 176.498 54.4798 175.09L54.5181 175.071L54.5561 175.051L92.2062 155.263L92.247 155.241L92.2874 155.219C92.3948 155.16 92.5192 155.109 92.6575 155.069H94.3941C95.1118 155.099 95.7835 155.282 96.3716 155.597L96.3905 155.607L96.4094 155.617L134.028 175.299C138.859 177.884 144.757 177.508 149.215 174.271C153.754 171.095 156.038 165.568 155.059 160.109Z" fill="#F7EED2" stroke="#FDD33D" stroke-width="10"/>
</svg>
