<svg width="190" height="140" viewBox="0 0 190 140" fill="none" xmlns="http://www.w3.org/2000/svg">
<mask id="path-1-outside-1_8:138" maskUnits="userSpaceOnUse" x="0" y="0" width="190" height="140" fill="black">
<rect fill="white" width="190" height="140"/>
<path d="M173.625 79.8426C166.646 79.8426 160.968 75.4299 160.968 70.0066C160.968 64.5833 166.646 60.1706 173.625 60.1706C175.325 60.1706 176.94 59.6488 178.139 58.7174C179.329 57.7926 180 56.5243 180 55.2163L179.992 37.3676C179.992 22.2801 164.19 10 144.776 10H45.224C25.81 10 10.017 22.2801 10.017 37.3676L10 55.791C10 57.099 10.6715 58.3607 11.87 59.2921C13.0685 60.2235 14.6835 60.7453 16.375 60.7453C23.5915 60.7453 29.04 64.722 29.04 70.0066C29.04 75.4299 23.362 79.8426 16.375 79.8426C12.856 79.8426 10 82.0621 10 84.7969V102.639C10 117.727 25.8015 130 45.2155 130H144.793C164.207 130 180 117.727 180 102.639V84.7969C180 82.0621 177.144 79.8426 173.625 79.8426Z"/>
</mask>
<path d="M173.625 79.8426C166.646 79.8426 160.968 75.4299 160.968 70.0066C160.968 64.5833 166.646 60.1706 173.625 60.1706C175.325 60.1706 176.94 59.6488 178.139 58.7174C179.329 57.7926 180 56.5243 180 55.2163L179.992 37.3676C179.992 22.2801 164.19 10 144.776 10H45.224C25.81 10 10.017 22.2801 10.017 37.3676L10 55.791C10 57.099 10.6715 58.3607 11.87 59.2921C13.0685 60.2235 14.6835 60.7453 16.375 60.7453C23.5915 60.7453 29.04 64.722 29.04 70.0066C29.04 75.4299 23.362 79.8426 16.375 79.8426C12.856 79.8426 10 82.0621 10 84.7969V102.639C10 117.727 25.8015 130 45.2155 130H144.793C164.207 130 180 117.727 180 102.639V84.7969C180 82.0621 177.144 79.8426 173.625 79.8426Z" fill="#F3E5F4"/>
<path d="M178.139 58.7174L184.275 66.6133L178.139 58.7174ZM180 55.2163H190V55.2116L180 55.2163ZM179.992 37.3676H169.992V37.3724L179.992 37.3676ZM10.017 37.3676L20.017 37.3768V37.3676H10.017ZM10 55.791L0 55.7818V55.791H10ZM173.625 69.8426C172.183 69.8426 171.219 69.3759 170.816 69.0624C170.422 68.7563 170.968 69.0063 170.968 70.0066H150.968C150.968 83.1524 163.616 89.8426 173.625 89.8426V69.8426ZM170.968 70.0066C170.968 71.0069 170.422 71.257 170.816 70.9508C171.22 70.6373 172.183 70.1706 173.625 70.1706V50.1706C163.616 50.1706 150.968 56.8608 150.968 70.0066H170.968ZM173.625 70.1706C177.279 70.1706 181.121 69.0646 184.275 66.6133L172.002 50.8214C172.4 50.5121 172.755 50.355 173.002 50.2754C173.253 50.1947 173.461 50.1706 173.625 50.1706V70.1706ZM184.275 66.6133C187.501 64.1061 190 60.0868 190 55.2163H170C170 52.9618 171.156 51.479 172.002 50.8214L184.275 66.6133ZM190 55.2116L189.992 37.3629L169.992 37.3724L170 55.2211L190 55.2116ZM189.992 37.3676C189.992 14.5576 167.22 0 144.776 0V20C161.16 20 169.992 30.0026 169.992 37.3676H189.992ZM144.776 0H45.224V20H144.776V0ZM45.224 0C22.7765 0 0.0170002 14.5602 0.0170002 37.3676H20.017C20.017 29.9999 28.8435 20 45.224 20V0ZM0.017004 37.3584L3.8147e-06 55.7818L20 55.8003L20.017 37.3768L0.017004 37.3584ZM0 55.791C0 60.6886 2.52366 64.6934 5.7337 67.188L18.0063 51.3961C18.8193 52.028 20 53.5093 20 55.791H0ZM5.7337 67.188C8.88361 69.636 12.7236 70.7453 16.375 70.7453V50.7453C16.5483 50.7453 16.7593 50.7708 17.009 50.8513C17.2552 50.9308 17.6089 51.0873 18.0063 51.3961L5.7337 67.188ZM16.375 70.7453C18.2333 70.7453 19.2391 71.2676 19.5132 71.4679C19.6292 71.5527 19.5079 71.4972 19.3462 71.2079C19.1682 70.8893 19.04 70.4565 19.04 70.0066H39.04C39.04 63.6027 35.6568 58.4943 31.3142 55.3206C27.0599 52.2114 21.7332 50.7453 16.375 50.7453V70.7453ZM19.04 70.0066C19.04 69.0058 19.5868 68.7552 19.1931 69.061C18.7897 69.3744 17.824 69.8426 16.375 69.8426V89.8426C26.3874 89.8426 39.04 83.1561 39.04 70.0066H19.04ZM16.375 69.8426C9.82586 69.8426 0 74.3396 0 84.7969H20C20 87.1346 18.7547 88.6069 18.0042 89.1901C17.2658 89.7639 16.6573 89.8426 16.375 89.8426V69.8426ZM0 84.7969V102.639H20V84.7969H0ZM0 102.639C0 125.452 22.7748 140 45.2155 140V120C28.8282 120 20 110.001 20 102.639H0ZM45.2155 140H144.793V120H45.2155V140ZM144.793 140C167.237 140 190 125.449 190 102.639H170C170 110.004 161.177 120 144.793 120V140ZM190 102.639V84.7969H170V102.639H190ZM190 84.7969C190 74.3396 180.174 69.8426 173.625 69.8426V89.8426C173.343 89.8426 172.734 89.7639 171.996 89.1901C171.245 88.6069 170 87.1346 170 84.7969H190Z" fill="#DCABDF" mask="url(#path-1-outside-1_8:138)"/>
</svg>
