<svg width="30" height="30" viewBox="0 0 30 30" fill="none" xmlns="http://www.w3.org/2000/svg">
<rect width="30" height="30" rx="8" fill="#FCFCFA"/>
<path d="M23.8328 18.9726C23.8328 18.9041 23.7612 18.9041 23.7612 18.8356C23.4747 18.2877 22.8302 17.6027 21.9707 16.8493C21.541 16.5069 21.3262 16.2329 21.1829 16.0959C20.9681 15.8219 20.9681 15.6164 21.0397 15.3425C21.1113 15.137 21.3978 14.7945 21.8991 14.1781C22.1856 13.8356 22.3288 13.6301 22.5437 13.4247C23.6179 12.0548 24.1193 11.1644 23.976 10.7534L23.9044 10.6849C23.8328 10.6164 23.7612 10.5479 23.6179 10.5479C23.4747 10.4795 23.2599 10.4795 23.045 10.5479H20.3235C20.2519 10.5479 20.2519 10.5479 20.1087 10.5479C20.0371 10.5479 19.9655 10.5479 19.9655 10.5479H19.8938H19.8222L19.7506 10.6164C19.679 10.6849 19.679 10.6849 19.679 10.7534C19.3925 11.5068 19.0344 12.1233 18.6763 12.8082C18.4615 13.1507 18.2466 13.4932 18.0318 13.7671C17.8169 14.0411 17.6737 14.2466 17.5304 14.3836C17.3872 14.5205 17.244 14.589 17.1723 14.726C17.1007 14.7945 16.9575 14.863 16.9575 14.7945C16.8859 14.7945 16.8143 14.7945 16.8143 14.726C16.7426 14.6575 16.671 14.589 16.5994 14.5205C16.5278 14.4521 16.5278 14.3151 16.4562 14.1781C16.4562 14.0411 16.4562 13.9041 16.4562 13.8356C16.4562 13.7671 16.4562 13.5616 16.4562 13.4247C16.4562 13.2192 16.4562 13.0822 16.4562 13.0137C16.4562 12.8082 16.4562 12.5343 16.4562 12.2603C16.4562 11.9863 16.4562 11.7808 16.4562 11.6438C16.4562 11.5068 16.4562 11.3014 16.4562 11.1644C16.4562 10.9589 16.4562 10.8219 16.4562 10.7534C16.4562 10.6849 16.3846 10.5479 16.3846 10.4795C16.313 10.411 16.2413 10.3425 16.1697 10.274C16.0981 10.2055 15.9549 10.2055 15.8832 10.137C15.5252 10.0685 15.0955 10 14.5941 10C13.4482 10 12.6604 10.0685 12.374 10.2055C12.2307 10.274 12.0875 10.3425 12.0159 10.4795C11.8727 10.6164 11.8727 10.6849 11.9443 10.6849C12.3024 10.7534 12.5888 10.8904 12.7321 11.0959L12.8037 11.2329C12.8753 11.3014 12.8753 11.4384 12.9469 11.6438C13.0185 11.8493 13.0185 12.0548 13.0185 12.3288C13.0185 12.7397 13.0185 13.1507 13.0185 13.4247C13.0185 13.7671 12.9469 13.9726 12.9469 14.1781C12.9469 14.3836 12.8753 14.5205 12.8037 14.589C12.7321 14.726 12.7321 14.7945 12.6604 14.7945C12.6604 14.7945 12.6604 14.863 12.5888 14.863C12.5172 14.863 12.4456 14.9315 12.3024 14.9315C12.2307 14.9315 12.0875 14.863 12.0159 14.7945C11.8727 14.726 11.7294 14.589 11.6578 14.4521C11.5146 14.3151 11.3713 14.1096 11.2281 13.8356C11.0849 13.5616 10.87 13.2877 10.7268 12.8767L10.5835 12.6027C10.5119 12.4658 10.3687 12.1918 10.2254 11.8493C10.0822 11.5068 9.93897 11.2329 9.79574 10.8904C9.72412 10.7534 9.65251 10.6849 9.58089 10.6164H9.50927C9.50927 10.6164 9.43765 10.5479 9.36603 10.5479C9.29441 10.5479 9.2228 10.4795 9.15118 10.4795H6.57294C6.28647 10.4795 6.14324 10.5479 6.07162 10.6164L6 10.6849C6 10.6849 6 10.7534 6 10.8219C6 10.8904 6 10.9589 6.07162 11.0959C6.42971 11.9178 6.85941 12.7397 7.28912 13.5616C7.71883 14.3151 8.14854 15 8.43501 15.4795C8.7931 15.9589 9.07956 16.4384 9.43765 16.8493C9.79574 17.2603 10.0106 17.5342 10.0822 17.6712C10.2254 17.8082 10.2971 17.8767 10.3687 17.9452L10.5835 18.1507C10.7268 18.2877 10.9416 18.4932 11.2281 18.6986C11.5146 18.9041 11.8726 19.1096 12.2307 19.3151C12.5888 19.5205 13.0185 19.6575 13.4482 19.7945C13.9496 19.9315 14.3793 20 14.809 19.9315H15.8832C16.0981 19.9315 16.2413 19.863 16.3846 19.726L16.4562 19.6575C16.4562 19.589 16.5278 19.589 16.5278 19.5205C16.5278 19.4521 16.5278 19.3836 16.5278 19.2466C16.5278 18.9726 16.5278 18.7671 16.5994 18.5616C16.671 18.3562 16.671 18.2192 16.7427 18.0822C16.8143 17.9452 16.8859 17.8767 16.9575 17.8082C17.0291 17.7397 17.1007 17.6712 17.1007 17.6712H17.1723C17.3156 17.6027 17.5304 17.6712 17.6737 17.8082C17.8885 17.9452 18.1034 18.1507 18.2466 18.3562C18.3899 18.5616 18.6047 18.7671 18.8912 19.0411C19.1777 19.3151 19.3925 19.5206 19.5357 19.589L19.7506 19.726C19.8938 19.7945 20.0371 19.863 20.2519 19.9315C20.4668 20 20.61 20 20.7532 20L23.1883 19.9315C23.4031 19.9315 23.6179 19.863 23.7612 19.7945C23.9044 19.726 23.976 19.6575 23.976 19.5205C23.976 19.4521 23.976 19.3151 23.976 19.2466C23.8328 19.1096 23.8328 19.0411 23.8328 18.9726Z" fill="#051439"/>
</svg>
