<svg width="190" height="165" viewBox="0 0 190 165" fill="none" xmlns="http://www.w3.org/2000/svg">
<path d="M177.052 58.3534H182.052V53.3534C182.052 38.6127 177.445 26.3399 168.384 17.7798C159.361 9.25613 146.545 5 131.243 5H55.8094C40.5071 5 27.6978 9.25577 18.679 17.726C9.61859 26.2354 5 38.4204 5 53.0043V111.996C5 126.58 9.61859 138.765 18.679 147.274C27.6978 155.744 40.5071 160 55.8094 160H131.243C146.545 160 159.354 155.744 168.373 147.274C177.433 138.765 182.052 126.58 182.052 111.996V109.482V104.482H177.052H141.711C127.776 104.482 117.013 93.9331 117.013 81.5575C117.013 69.182 127.776 58.6326 141.711 58.6326H146.711V58.3534H177.052ZM185 91.6727L185 91.6416V91.6105V71.2253C185 64.9396 179.675 60.3611 173.763 60.3611H141.711H141.681L141.651 60.3615C135.177 60.4397 128.989 63.2021 124.778 68.037C120.552 72.8898 118.774 79.3266 120.029 85.6089L120.051 85.7206L120.078 85.8313C122.564 95.867 131.996 102.592 142.41 102.475H173.763H173.791L173.818 102.474C179.677 102.41 184.922 97.8868 185 91.6727ZM142.918 79.7854L142.946 79.7858H142.973H144.347H145.72C146.202 79.7858 146.576 79.9663 146.81 80.1869C147.04 80.4024 147.106 80.6156 147.106 80.7896C147.106 80.9636 147.04 81.1768 146.81 81.3923C146.576 81.6129 146.202 81.7934 145.72 81.7934H144.347H143.009C142.52 81.7836 142.14 81.5959 141.9 81.3672C141.662 81.1406 141.588 80.912 141.588 80.7201L141.588 80.7194C141.588 80.5736 141.648 80.3652 141.867 80.1615C142.097 79.9478 142.471 79.7805 142.918 79.7854ZM49.5724 46.3457H49.5728H96.7186C97.2002 46.3457 97.5739 46.5263 97.8084 46.7468C98.0376 46.9623 98.1037 47.1755 98.1037 47.3495C98.1037 47.5236 98.0376 47.7368 97.8084 47.9523C97.5739 48.1728 97.2002 48.3534 96.7186 48.3534H49.6079C49.1194 48.3435 48.7397 48.1558 48.4993 47.9272C48.2739 47.7128 48.1961 47.4966 48.1883 47.3115C48.1978 47.1441 48.2709 46.9435 48.4877 46.742C48.7228 46.5235 49.095 46.3457 49.5724 46.3457Z" fill="#F0F7D2" stroke="#D4EF68" stroke-width="10"/>
</svg>
